HIERARCHY
ROOT Hips
{
	OFFSET 0.000000 0.000000 0.000000
	CHANNELS 6 Xposition Yposition Zposition Zrotation Yrotation Xrotation 
	JOINT LHipJoint
	{
		OFFSET 0.000000 0.000000 0.000000
		CHANNELS 3 Zrotation Yrotation Xrotation
		JOINT LeftUpLeg
		{
			OFFSET 1.363060 -1.794630 0.839290
			CHANNELS 3 Zrotation Yrotation Xrotation
			JOINT LeftLeg
			{
				OFFSET 2.448110 -6.726130 0.000000
				CHANNELS 3 Zrotation Yrotation Xrotation
				JOINT LeftFoot
				{
					OFFSET 2.562200 -7.039590 0.000000
					CHANNELS 3 Zrotation Yrotation Xrotation
					JOINT LeftToeBase
					{
						OFFSET 0.157640 -0.433110 2.322550
						CHANNELS 3 Zrotation Yrotation Xrotation
						End Site
						{
							OFFSET 0.000000 0.000000 0.000000
						}
					}
				}
			}
		}
	}
	JOINT RHipJoint
	{
		OFFSET 0.000000 0.000000 0.000000
		CHANNELS 3 Zrotation Yrotation Xrotation
		JOINT RightUpLeg
		{
			OFFSET -1.305520 -1.794630 0.839290
			CHANNELS 3 Zrotation Yrotation Xrotation
			JOINT RightLeg
			{
				OFFSET -2.542530 -6.985550 0.000000
				CHANNELS 3 Zrotation Yrotation Xrotation
				JOINT RightFoot
				{
					OFFSET -2.568260 -7.056230 0.000000
					CHANNELS 3 Zrotation Yrotation Xrotation
					JOINT RightToeBase
					{
						OFFSET -0.164730 -0.452590 2.363150
						CHANNELS 3 Zrotation Yrotation Xrotation
						End Site
						{
							OFFSET 0.000000 0.000000 0.000000
						}
					}
				}
			}
		}
	}
}
MOTION
Frames: 11
Frame Time: 0.008333
-9.995307 16.996110 0.136706 162.796443 86.807570 170.310733 -11.226083 5.709831 0.466188 -1.016034 9.033150 4.759863 -0.413858 2.253210 29.425046 0.940142 -6.540592 26.117087 -3.932400 0.000000 -75.017700 9.419207 -0.143312 1.448003 10.513712 -3.401706 -30.968348 1.777932 -0.654595 20.464526 -2.098895 -9.985638 -2.291391 -1.859501 -0.000000 -22.473700
-9.802446 16.938474 0.147364 168.537250 87.069261 175.674967 -11.475850 5.779469 0.354429 0.183456 10.161094 3.769438 -0.332470 2.369494 32.222728 1.063717 -6.881619 26.971201 -4.266100 0.000000 -72.039500 9.345676 -0.138510 1.118686 11.233415 -4.239542 -31.550166 1.747572 -0.945494 23.917389 -2.004760 -9.261269 -3.573074 -1.456000 0.000000 -21.088600
-9.614818 16.878895 0.156763 174.993771 87.353215 -178.248743 -11.787847 5.827400 0.209160 1.437459 11.367456 2.705097 -0.260948 2.499147 35.106937 1.192498 -6.792193 27.572247 -4.351900 -0.000000 -68.531300 9.204172 -0.137246 0.788236 11.991430 -5.051481 -31.965508 1.724977 -1.176177 27.083661 -1.936176 -8.611614 -5.126749 -1.048100 -0.000000 -19.672700
-9.432508 16.817967 0.165035 -177.986405 87.622324 -171.612525 -12.173483 5.833396 0.030489 2.724304 12.621734 1.588526 -0.188378 2.641792 38.052564 1.321723 -6.199540 27.847407 -4.132200 -0.000000 -64.684100 8.974427 -0.162574 0.466827 12.773879 -5.807244 -32.197106 1.714897 -1.354205 29.931259 -1.897244 -8.046319 -6.902322 -0.645100 -0.000000 -18.258700
-9.255447 16.756520 0.172876 -170.806552 87.820824 -164.823931 -12.615051 5.771528 -0.180725 4.008984 13.874344 0.452613 -0.101091 2.792020 41.026453 1.447607 -5.072501 27.736068 -3.585200 -0.000000 -60.692899 8.662851 -0.236998 0.164344 13.552367 -6.497566 -32.238388 1.721796 -1.495808 32.444689 -1.888506 -7.564269 -8.829059 -0.253800 0.000000 -16.897900
-9.083217 16.695497 0.180857 -163.808535 87.911812 -158.223138 -13.075785 5.626101 -0.421516 5.267787 15.081872 -0.684458 0.008900 2.944784 43.997045 1.568415 -3.442906 27.188423 -2.741500 0.000000 -56.725700 8.297358 -0.370720 -0.109255 14.310442 -7.106984 -32.090478 1.748257 -1.616673 34.614634 -1.908229 -7.167909 -10.820586 0.118601 0.000000 -15.631700
-8.915266 16.636025 0.189578 -157.275591 87.890193 -152.087405 -13.512808 5.399015 -0.686322 6.473562 16.209415 -1.815268 0.140819 3.098712 46.929346 1.684179 -1.395287 26.174874 -1.679600 0.000000 -52.886900 7.918110 -0.556099 -0.347457 15.033295 -7.615029 -31.759807 1.791963 -1.727181 36.442427 -1.951966 -6.860170 -12.783941 0.465300 -0.000001 -14.513499
-8.750844 16.579371 0.199715 -151.420350 87.779441 -146.619642 -13.891910 5.107647 -0.966866 7.587977 17.231416 -2.942816 0.287396 3.255501 49.785538 1.795787 0.948185 24.691848 -0.510700 0.000000 -49.213299 7.563466 -0.772633 -0.547791 15.700570 -8.002895 -31.262049 1.845944 -1.831283 37.943774 -2.013520 -6.642573 -14.632673 0.780800 -0.000000 -13.600900
-8.589035 16.526858 0.211206 -146.175711 87.608701 -141.737385 -14.206944 4.769914 -1.253326 8.591152 18.138269 -4.087245 0.440791 3.415878 52.535466 1.904078 3.435403 22.762780 0.635700 0.000000 -45.687600 7.245436 -1.004979 -0.706851 16.313292 -8.239016 -30.617262 1.903113 -1.928429 39.133274 -2.090239 -6.532176 -16.296016 1.063500 0.000000 -12.923500
-8.428998 16.479847 0.224147 -141.522308 87.404259 -137.408004 -14.455246 4.404464 -1.534792 9.451884 18.918152 -5.268130 0.593284 3.578549 55.148387 2.009550 5.923080 20.443755 1.644200 0.000000 -42.257000 6.973021 -1.238406 -0.823393 16.864954 -8.309936 -29.855511 1.956772 -2.017466 40.037039 -2.179127 -6.538710 -17.728036 1.315300 0.000000 -12.487800
-8.269902 16.439685 0.238796 -137.510737 87.194863 -133.669934 -14.633614 4.031746 -1.799517 10.124102 19.555255 -6.505189 0.737242 3.740426 57.594201 2.112575 8.295950 17.819752 2.432000 -0.000000 -38.889800 6.756641 -1.457652 -0.899605 17.337456 -8.227849 -29.018130 2.001357 -2.096864 40.693967 -2.275900 -6.656655 -18.912017 1.539700 0.000000 -12.288401
